<svg width="85" height="85" viewBox="0 0 85 85" fill="none" xmlns="http://www.w3.org/2000/svg">
<g clip-path="url(#clip0_4_16)">
<path d="M16.1126 3.09595V80.7781" stroke="white" stroke-width="3.13597" stroke-linecap="round"/>
<path d="M47.6374 22.798C47.6374 34.5216 37.4132 44.4702 24.2857 44.4702C11.1582 44.4702 0.934065 34.5216 0.934065 22.798C0.934065 11.0745 11.1582 1.12585 24.2857 1.12585C37.4132 1.12585 47.6374 11.0745 47.6374 22.798Z" stroke="white" stroke-width="2.50878"/>
<path d="M17.7472 45.5959L72.8571 82.1853" stroke="white" stroke-width="2.50878" stroke-linecap="round"/>
<path d="M51.162 67.4742C49.7339 66.5904 48.8115 65.3081 48.3953 63.6267C47.983 61.9379 48.1796 60.1467 48.9861 58.2531L49.1561 57.854C49.6923 56.5942 50.3686 55.5939 51.1845 54.8529C52.0102 54.1081 52.8985 53.6789 53.8494 53.5651C54.8096 53.4475 55.7086 53.6478 56.5465 54.1659C57.9163 55.0133 58.749 56.2158 59.0456 57.7735C59.3421 59.3311 59.0586 61.1234 58.1956 63.1499L57.8107 64.0533L50.6726 59.6378C50.1654 60.9055 50.0356 62.1057 50.2836 63.2377C50.5414 64.3663 51.1181 65.2073 52.0144 65.7618C52.6505 66.1553 53.2558 66.332 53.8307 66.2926C54.4056 66.2526 54.9684 66.0765 55.5195 65.7652L56.1798 67.4787C54.6003 68.5679 52.9279 68.5662 51.162 67.4742ZM55.7866 55.95C55.0594 55.5002 54.3127 55.4435 53.5458 55.7799C52.7827 56.1084 52.0975 56.8115 51.4908 57.8894L56.7688 61.1549L56.8388 60.9905C57.2568 59.8551 57.3731 58.8498 57.1886 57.9739C57.007 57.0907 56.5395 56.4157 55.7866 55.95Z" fill="white"/>
<path d="M73.7814 74.7927C72.9253 76.4296 71.7843 77.4237 70.3585 77.775C68.9261 78.1217 67.4629 77.7277 65.9693 76.5923L65.6545 76.3531C64.6607 75.5982 63.8934 74.6981 63.353 73.6527C62.8103 72.5962 62.5338 71.4917 62.5235 70.34C62.5114 69.1765 62.7561 68.1148 63.2582 67.155C64.0792 65.5851 65.1464 64.6912 66.4597 64.4728C67.773 64.2538 69.2292 64.752 70.8283 65.9673L71.541 66.5088L67.2621 74.6896C68.2653 75.4102 69.246 75.6719 70.2034 75.4738C71.1585 75.2638 71.9048 74.6457 72.4415 73.619C72.823 72.8894 73.0224 72.1785 73.0402 71.485C73.0579 70.7909 72.9627 70.0996 72.7534 69.4106L74.2279 68.7689C74.9887 70.7611 74.8401 72.769 73.7814 74.7927ZM64.6654 68.2246C64.2296 69.0577 64.1171 69.9499 64.3272 70.8995C64.5313 71.8452 65.0525 72.7296 65.8899 73.5531L69.0536 67.504L68.9242 67.4055C68.0224 66.8038 67.2018 66.5752 66.462 66.7199C65.7157 66.8601 65.117 67.3616 64.6654 68.2246Z" fill="white"/>
</g>
<defs>
<clipPath id="clip0_4_16">
<rect width="85" height="85" fill="white"/>
</clipPath>
</defs>
</svg>
