<?xml version="1.0" encoding="UTF-8"?>
<svg width="700pt" height="700pt" version="1.1" viewBox="0 0 700 700" xmlns="http://www.w3.org/2000/svg" xmlns:xlink="http://www.w3.org/1999/xlink">
 <defs>
  <symbol id="v" overflow="visible">
   <path d="m2.4531-0.14062c-0.125 0.0625-0.25781 0.10938-0.39062 0.14062-0.13672 0.03125-0.27734 0.046875-0.42188 0.046875-0.44922 0-0.80469-0.125-1.0625-0.375-0.26172-0.25-0.39062-0.58203-0.39062-1 0-0.4375 0.12891-0.77344 0.39062-1.0156 0.25781-0.25 0.61328-0.375 1.0625-0.375 0.14453 0 0.28516 0.015625 0.42188 0.046875 0.13281 0.03125 0.26562 0.078125 0.39062 0.14062v0.5625c-0.125-0.09375-0.25-0.15625-0.375-0.1875-0.125-0.039062-0.25781-0.0625-0.39062-0.0625-0.25 0-0.44922 0.078125-0.59375 0.23438-0.13672 0.15625-0.20312 0.375-0.20312 0.65625 0 0.27344 0.066406 0.48438 0.20312 0.64062 0.14453 0.15625 0.34375 0.23438 0.59375 0.23438 0.13281 0 0.26562-0.015625 0.39062-0.046875 0.125-0.039062 0.25-0.10938 0.375-0.20312z"/>
  </symbol>
  <symbol id="c" overflow="visible">
   <path d="m1.7969-1.4688c-0.054687-0.019531-0.10938-0.035156-0.17188-0.046875-0.054688-0.007813-0.10547-0.015625-0.15625-0.015625-0.16797 0-0.29688 0.054688-0.39062 0.15625-0.085937 0.10547-0.125 0.25781-0.125 0.45312v0.92188h-0.64062v-2.0156h0.64062v0.34375c0.082031-0.13281 0.17578-0.23438 0.28125-0.29688 0.10156-0.0625 0.23438-0.09375 0.39062-0.09375 0.019531 0 0.039062 0.007812 0.0625 0.015625h0.10938z"/>
  </symbol>
  <symbol id="a" overflow="visible">
   <path d="m2.3125-1.0156v0.1875h-1.5c0.007812 0.15625 0.0625 0.27344 0.15625 0.34375 0.09375 0.074219 0.22266 0.10938 0.39062 0.10938 0.13281 0 0.27344-0.019531 0.42188-0.0625 0.14453-0.039062 0.28906-0.097656 0.4375-0.17188v0.48438c-0.15625 0.0625-0.3125 0.10547-0.46875 0.125-0.14844 0.03125-0.29297 0.046875-0.4375 0.046875-0.36719 0-0.65234-0.085938-0.85938-0.26562-0.19922-0.1875-0.29688-0.44531-0.29688-0.78125 0-0.33203 0.097656-0.59375 0.29688-0.78125 0.19531-0.1875 0.46875-0.28125 0.8125-0.28125 0.32031 0 0.57812 0.10156 0.76562 0.29688 0.1875 0.1875 0.28125 0.4375 0.28125 0.75zm-0.65625-0.20312c0-0.125-0.039062-0.22266-0.10938-0.29688-0.074219-0.070313-0.16797-0.10938-0.28125-0.10938-0.125 0-0.23047 0.039062-0.3125 0.10938-0.074219 0.0625-0.12109 0.16406-0.14062 0.29688z"/>
  </symbol>
  <symbol id="e" overflow="visible">
   <path d="m1.2031-0.90625c-0.13672 0-0.23438 0.027344-0.29688 0.078125-0.0625 0.042969-0.09375 0.10547-0.09375 0.1875 0 0.085937 0.023438 0.15234 0.078125 0.20312 0.050781 0.042969 0.125 0.0625 0.21875 0.0625 0.125 0 0.22656-0.039062 0.3125-0.125 0.082031-0.09375 0.125-0.20312 0.125-0.32812v-0.078125zm0.98438-0.23438v1.1406h-0.64062v-0.29688c-0.09375 0.125-0.19531 0.21484-0.29688 0.26562-0.10547 0.050781-0.23438 0.078125-0.39062 0.078125-0.21094 0-0.38281-0.054688-0.51562-0.17188-0.125-0.125-0.1875-0.28516-0.1875-0.48438 0-0.22656 0.078125-0.39453 0.23438-0.5 0.16406-0.11328 0.42188-0.17188 0.76562-0.17188h0.39062v-0.046875c0-0.10156-0.042969-0.17578-0.125-0.21875-0.085937-0.050781-0.21094-0.078125-0.375-0.078125-0.13672 0-0.26562 0.015625-0.39062 0.046875-0.11719 0.023437-0.22656 0.058594-0.32812 0.10938v-0.48438c0.14453-0.03125 0.28516-0.054687 0.42188-0.078125 0.13281-0.019531 0.26953-0.03125 0.40625-0.03125 0.36328 0 0.625 0.074219 0.78125 0.21875 0.16406 0.14844 0.25 0.38281 0.25 0.70312z"/>
  </symbol>
  <symbol id="b" overflow="visible">
   <path d="m1.0156-2.5781v0.5625h0.65625v0.46875h-0.65625v0.84375c0 0.09375 0.015625 0.16406 0.046875 0.20312 0.039062 0.03125 0.11328 0.046875 0.21875 0.046875h0.32812v0.45312h-0.54688c-0.25 0-0.42969-0.050781-0.53125-0.15625-0.10547-0.10156-0.15625-0.28516-0.15625-0.54688v-0.84375h-0.32812v-0.46875h0.32812v-0.5625z"/>
  </symbol>
  <symbol id="m" overflow="visible">
   <path d="m1.6719-1.7188v-1.0781h0.64062v2.7969h-0.64062v-0.29688c-0.085937 0.125-0.18359 0.21484-0.29688 0.26562-0.10547 0.050781-0.22656 0.078125-0.35938 0.078125-0.25 0-0.45312-0.09375-0.60938-0.28125-0.15625-0.19531-0.23438-0.45312-0.23438-0.76562s0.078125-0.56641 0.23438-0.76562c0.15625-0.19531 0.35938-0.29688 0.60938-0.29688 0.13281 0 0.25391 0.03125 0.35938 0.09375 0.11328 0.054688 0.21094 0.13672 0.29688 0.25zm-0.42188 1.2969c0.13281 0 0.23828-0.046875 0.3125-0.14062 0.070312-0.10156 0.10938-0.25 0.10938-0.4375 0-0.19531-0.039063-0.34375-0.10938-0.4375-0.074219-0.10156-0.17969-0.15625-0.3125-0.15625-0.13672 0-0.24219 0.054688-0.3125 0.15625-0.074219 0.09375-0.10938 0.24219-0.10938 0.4375 0 0.1875 0.035156 0.33594 0.10938 0.4375 0.070312 0.09375 0.17578 0.14062 0.3125 0.14062z"/>
  </symbol>
  <symbol id="l" overflow="visible">
   <path d="m1.375-0.42188c0.13281 0 0.23828-0.046875 0.3125-0.14062 0.070312-0.10156 0.10938-0.25 0.10938-0.4375 0-0.19531-0.039063-0.34375-0.10938-0.4375-0.074219-0.10156-0.17969-0.15625-0.3125-0.15625-0.13672 0-0.24219 0.054688-0.3125 0.15625-0.074219 0.10547-0.10938 0.25-0.10938 0.4375s0.035156 0.33594 0.10938 0.4375c0.070312 0.09375 0.17578 0.14062 0.3125 0.14062zm-0.42188-1.2969c0.082031-0.11328 0.17578-0.19531 0.28125-0.25 0.11328-0.0625 0.23828-0.09375 0.375-0.09375 0.25 0 0.45312 0.10156 0.60938 0.29688 0.16406 0.19922 0.25 0.45312 0.25 0.76562s-0.085938 0.57031-0.25 0.76562c-0.15625 0.1875-0.35938 0.28125-0.60938 0.28125-0.13672 0-0.26172-0.027344-0.375-0.078125-0.10547-0.050781-0.19922-0.14062-0.28125-0.26562v0.29688h-0.64062v-2.7969h0.64062z"/>
  </symbol>
  <symbol id="k" overflow="visible">
   <path d="m0.046875-2.0156h0.64062l0.53125 1.375 0.46875-1.375h0.64062l-0.84375 2.2031c-0.085937 0.22656-0.18359 0.38281-0.29688 0.46875-0.11719 0.09375-0.26562 0.14062-0.45312 0.14062h-0.35938v-0.42188h0.1875c0.11328 0 0.19141-0.023438 0.23438-0.0625 0.050781-0.03125 0.09375-0.09375 0.125-0.1875l0.015625-0.046875z"/>
  </symbol>
  <symbol id="j" overflow="visible">
   <path d="m1.4062-1.6406c0.11328 0 0.19531-0.019531 0.25-0.0625 0.050781-0.050781 0.078125-0.125 0.078125-0.21875s-0.027344-0.16016-0.078125-0.20312c-0.054688-0.050781-0.13672-0.078125-0.25-0.078125h-0.375v0.5625zm0.03125 1.1719c0.13281 0 0.23438-0.023438 0.29688-0.078125 0.070313-0.0625 0.10938-0.15625 0.10938-0.28125 0-0.11328-0.039062-0.19531-0.10938-0.25-0.0625-0.0625-0.16406-0.09375-0.29688-0.09375h-0.40625v0.70312zm0.64062-0.96875c0.14453 0.042969 0.25781 0.125 0.34375 0.25 0.082031 0.11719 0.125 0.25781 0.125 0.42188 0 0.26172-0.089844 0.45312-0.26562 0.57812-0.17969 0.125-0.44531 0.1875-0.79688 0.1875h-1.1406v-2.6719h1.0312c0.375 0 0.64453 0.058594 0.8125 0.17188 0.16406 0.10547 0.25 0.28125 0.25 0.53125 0 0.13672-0.03125 0.25-0.09375 0.34375-0.0625 0.085938-0.15234 0.14844-0.26562 0.1875z"/>
  </symbol>
  <symbol id="i" overflow="visible">
   <path d="m0.3125-2.0156h0.64062v2.0156h-0.64062zm0-0.78125h0.64062v0.53125h-0.64062z"/>
  </symbol>
  <symbol id="u" overflow="visible">
   <path d="m1.875-1.9375v0.48438c-0.13672-0.0625-0.27344-0.10156-0.40625-0.125-0.125-0.03125-0.24609-0.046875-0.35938-0.046875-0.11719 0-0.20312 0.015625-0.26562 0.046875s-0.09375 0.078125-0.09375 0.14062c0 0.054688 0.019531 0.09375 0.0625 0.125 0.050781 0.023438 0.13281 0.039062 0.25 0.046875l0.10938 0.015625c0.33203 0.042969 0.55469 0.11719 0.67188 0.21875 0.11328 0.09375 0.17188 0.24219 0.17188 0.4375 0 0.21875-0.085937 0.38281-0.25 0.48438-0.15625 0.10547-0.39062 0.15625-0.70312 0.15625-0.125 0-0.26172-0.011719-0.40625-0.03125-0.14844-0.019531-0.29297-0.050781-0.4375-0.09375v-0.48438c0.125 0.0625 0.25391 0.10938 0.39062 0.14062 0.13281 0.03125 0.27344 0.046875 0.42188 0.046875 0.125 0 0.21875-0.015625 0.28125-0.046875 0.0625-0.039063 0.09375-0.09375 0.09375-0.15625s-0.027344-0.10156-0.078125-0.125c-0.042969-0.03125-0.125-0.054687-0.25-0.078125h-0.10938c-0.29297-0.039062-0.49609-0.10938-0.60938-0.20312-0.11719-0.10156-0.17188-0.25-0.17188-0.4375 0-0.21875 0.070312-0.37891 0.21875-0.48438 0.14453-0.10156 0.36719-0.15625 0.67188-0.15625 0.11328 0 0.23438 0.011719 0.35938 0.03125 0.13281 0.023438 0.28125 0.054688 0.4375 0.09375z"/>
  </symbol>
  <symbol id="h" overflow="visible">
   <path d="m2.1719-1.6719c0.082031-0.125 0.17578-0.21875 0.28125-0.28125 0.11328-0.070313 0.23828-0.10938 0.375-0.10938 0.22656 0 0.39844 0.074219 0.51562 0.21875 0.125 0.14844 0.1875 0.35547 0.1875 0.625v1.2188h-0.64062v-1.0469-0.046875-0.078125c0-0.13281-0.023437-0.23438-0.0625-0.29688-0.042969-0.070312-0.10938-0.10938-0.20312-0.10938-0.11719 0-0.21094 0.054687-0.28125 0.15625-0.0625 0.10547-0.09375 0.25-0.09375 0.4375v0.98438h-0.65625v-1.0469c0-0.21875-0.023438-0.35938-0.0625-0.42188-0.03125-0.070312-0.10156-0.10938-0.20312-0.10938-0.11719 0-0.21094 0.054687-0.28125 0.15625-0.0625 0.10547-0.09375 0.25-0.09375 0.4375v0.98438h-0.64062v-2.0156h0.64062v0.29688c0.070313-0.11328 0.16016-0.19531 0.26562-0.25 0.10156-0.0625 0.21875-0.09375 0.34375-0.09375 0.13281 0 0.25391 0.039062 0.35938 0.10938 0.11328 0.0625 0.19531 0.15625 0.25 0.28125z"/>
  </symbol>
  <symbol id="g" overflow="visible">
   <path d="m0.3125-2.7969h0.64062v2.7969h-0.64062z"/>
  </symbol>
  <symbol id="f" overflow="visible">
   <path d="m2.3281-1.2188v1.2188h-0.64062v-0.9375c0-0.17578-0.007812-0.29688-0.015625-0.35938-0.011719-0.0625-0.027344-0.10938-0.046875-0.14062-0.023438-0.039062-0.054688-0.070312-0.09375-0.09375-0.042969-0.03125-0.09375-0.046875-0.15625-0.046875-0.125 0-0.23047 0.054687-0.3125 0.15625-0.074219 0.10547-0.10938 0.25-0.10938 0.4375v0.98438h-0.64062v-2.7969h0.64062v1.0781c0.09375-0.11328 0.19141-0.19531 0.29688-0.25 0.11328-0.0625 0.23828-0.09375 0.375-0.09375 0.22656 0 0.39844 0.074219 0.51562 0.21875 0.125 0.14844 0.1875 0.35547 0.1875 0.625z"/>
  </symbol>
  <symbol id="t" overflow="visible">
   <path d="m1.625-2.7969v0.42188h-0.34375c-0.09375 0-0.16406 0.023438-0.20312 0.0625-0.03125 0.03125-0.046875 0.089844-0.046875 0.17188v0.125h0.54688v0.46875h-0.54688v1.5469h-0.64062v-1.5469h-0.32812v-0.46875h0.32812v-0.125c0-0.21875 0.054687-0.37891 0.17188-0.48438 0.125-0.11328 0.31641-0.17188 0.57812-0.17188z"/>
  </symbol>
  <symbol id="d" overflow="visible">
   <path d="m1.2656-1.5938c-0.14844 0-0.25781 0.054688-0.32812 0.15625-0.074219 0.09375-0.10938 0.24219-0.10938 0.4375 0 0.1875 0.035156 0.33594 0.10938 0.4375 0.070312 0.10547 0.17969 0.15625 0.32812 0.15625 0.13281 0 0.23828-0.050781 0.3125-0.15625 0.082031-0.10156 0.125-0.25 0.125-0.4375 0-0.19531-0.042969-0.34375-0.125-0.4375-0.074219-0.10156-0.17969-0.15625-0.3125-0.15625zm0-0.46875c0.34375 0 0.60938 0.09375 0.79688 0.28125 0.19531 0.1875 0.29688 0.44922 0.29688 0.78125 0 0.33594-0.10156 0.59375-0.29688 0.78125-0.1875 0.17969-0.45312 0.26562-0.79688 0.26562s-0.61719-0.085938-0.8125-0.26562c-0.19922-0.1875-0.29688-0.44531-0.29688-0.78125 0-0.33203 0.097656-0.59375 0.29688-0.78125 0.19531-0.1875 0.46875-0.28125 0.8125-0.28125z"/>
  </symbol>
  <symbol id="s" overflow="visible">
   <path d="m0.34375-2.6719h0.76562l0.96875 1.8281v-1.8281h0.65625v2.6719h-0.76562l-0.98438-1.8438v1.8438h-0.64062z"/>
  </symbol>
  <symbol id="r" overflow="visible">
   <path d="m0.28125-0.78125v-1.2344h0.65625v0.20312c0 0.11719-0.007812 0.25781-0.015625 0.42188v0.32812c0 0.15625 0.003906 0.27344 0.015625 0.34375 0.007812 0.074219 0.023438 0.125 0.046875 0.15625 0.03125 0.042969 0.066406 0.074219 0.10938 0.09375 0.039062 0.023438 0.085938 0.03125 0.14062 0.03125 0.13281 0 0.23828-0.050781 0.3125-0.15625 0.070313-0.10156 0.10938-0.24219 0.10938-0.42188v-1h0.65625v2.0156h-0.65625v-0.29688c-0.09375 0.125-0.19922 0.21484-0.3125 0.26562-0.10547 0.050781-0.21875 0.078125-0.34375 0.078125-0.23047 0-0.40625-0.066406-0.53125-0.20312-0.125-0.14453-0.1875-0.35156-0.1875-0.625z"/>
  </symbol>
  <symbol id="q" overflow="visible">
   <path d="m2.3281-1.2188v1.2188h-0.64062v-0.9375c0-0.17578-0.007812-0.29688-0.015625-0.35938-0.011719-0.0625-0.027344-0.10938-0.046875-0.14062-0.023438-0.039062-0.054688-0.070312-0.09375-0.09375-0.042969-0.03125-0.09375-0.046875-0.15625-0.046875-0.125 0-0.23047 0.054687-0.3125 0.15625-0.074219 0.10547-0.10938 0.25-0.10938 0.4375v0.98438h-0.64062v-2.0156h0.64062v0.29688c0.09375-0.11328 0.19141-0.19531 0.29688-0.25 0.11328-0.0625 0.23828-0.09375 0.375-0.09375 0.22656 0 0.39844 0.074219 0.51562 0.21875 0.125 0.14844 0.1875 0.35547 0.1875 0.625z"/>
  </symbol>
  <symbol id="p" overflow="visible">
   <path d="m0.34375-2.6719h1.1406c0.34375 0 0.60156 0.078125 0.78125 0.23438 0.1875 0.14844 0.28125 0.35938 0.28125 0.64062s-0.09375 0.5-0.28125 0.65625c-0.17969 0.14844-0.4375 0.21875-0.78125 0.21875h-0.45312v0.92188h-0.6875zm0.6875 0.5v0.75h0.375c0.13281 0 0.23828-0.03125 0.3125-0.09375 0.070312-0.070313 0.10938-0.16406 0.10938-0.28125 0-0.125-0.039063-0.21875-0.10938-0.28125-0.074219-0.0625-0.17969-0.09375-0.3125-0.09375z"/>
  </symbol>
  <symbol id="o" overflow="visible">
   <path d="m0.3125-2.0156h0.64062v1.9844c0 0.26953-0.070313 0.47266-0.20312 0.60938-0.125 0.14453-0.30859 0.21875-0.54688 0.21875h-0.32812v-0.42188h0.10938c0.125 0 0.20703-0.03125 0.25-0.09375 0.050781-0.054688 0.078125-0.15625 0.078125-0.3125zm0-0.78125h0.64062v0.53125h-0.64062z"/>
  </symbol>
  <symbol id="n" overflow="visible">
   <path d="m1.9375-1.9375v0.51562c-0.09375-0.0625-0.1875-0.10156-0.28125-0.125-0.085938-0.03125-0.17188-0.046875-0.26562-0.046875-0.17969 0-0.32031 0.054688-0.42188 0.15625-0.09375 0.10547-0.14062 0.25-0.14062 0.4375s0.046875 0.33594 0.14062 0.4375c0.10156 0.10547 0.24219 0.15625 0.42188 0.15625 0.10156 0 0.19531-0.015625 0.28125-0.046875 0.09375-0.03125 0.17969-0.070313 0.26562-0.125v0.51562c-0.10547 0.042969-0.21094 0.066406-0.3125 0.078125-0.10547 0.019531-0.21094 0.03125-0.3125 0.03125-0.36719 0-0.65234-0.085938-0.85938-0.26562-0.19922-0.1875-0.29688-0.44531-0.29688-0.78125 0-0.33203 0.097656-0.59375 0.29688-0.78125 0.20703-0.1875 0.49219-0.28125 0.85938-0.28125 0.10156 0 0.20703 0.011719 0.3125 0.03125 0.10156 0.023438 0.20703 0.054688 0.3125 0.09375z"/>
  </symbol>
 </defs>
 <g>
  <path d="m399.24 171.97c-9.5547-17.637-27.926-29.395-49.238-29.395s-39.684 11.758-48.504 29.395z" fill-rule="evenodd"/>
  <path d="m399.24 246.93h13.23v143.3h-13.23z" fill-rule="evenodd"/>
  <path d="m343.39 246.93h13.227v143.3h-13.227z" fill-rule="evenodd"/>
  <path d="m287.53 246.93h13.23v143.3h-13.23z" fill-rule="evenodd"/>
  <path d="m350 0c154.33 0 280 125.67 280 280s-125.67 280-280 280-280-125.67-280-280 125.67-280 280-280zm0 116.12c36.012 0 66.875 23.516 77.164 55.852h90.395v23.516h-26.457l-41.891 248.4h-198.43l-41.891-248.4h-26.457v-23.516h90.395c10.289-32.336 41.156-55.852 77.164-55.852z" fill-rule="evenodd"/>
  <use x="70" y="571.023438" xlink:href="#v"/>
  <use x="72.695312" y="571.023438" xlink:href="#c"/>
  <use x="74.507812" y="571.023438" xlink:href="#a"/>
  <use x="77" y="571.023438" xlink:href="#e"/>
  <use x="79.480469" y="571.023438" xlink:href="#b"/>
  <use x="81.238281" y="571.023438" xlink:href="#a"/>
  <use x="83.730469" y="571.023438" xlink:href="#m"/>
  <use x="87.640625" y="571.023438" xlink:href="#l"/>
  <use x="90.269531" y="571.023438" xlink:href="#k"/>
  <use x="93.945312" y="571.023438" xlink:href="#j"/>
  <use x="96.746094" y="571.023438" xlink:href="#i"/>
  <use x="98.003906" y="571.023438" xlink:href="#u"/>
  <use x="100.191406" y="571.023438" xlink:href="#h"/>
  <use x="104.019531" y="571.023438" xlink:href="#i"/>
  <use x="105.28125" y="571.023438" xlink:href="#g"/>
  <use x="106.539062" y="571.023438" xlink:href="#g"/>
  <use x="107.796875" y="571.023438" xlink:href="#e"/>
  <use x="110.277344" y="571.023438" xlink:href="#f"/>
  <use x="70" y="574.699219" xlink:href="#t"/>
  <use x="71.597656" y="574.699219" xlink:href="#c"/>
  <use x="73.410156" y="574.699219" xlink:href="#d"/>
  <use x="75.933594" y="574.699219" xlink:href="#h"/>
  <use x="81.042969" y="574.699219" xlink:href="#b"/>
  <use x="82.800781" y="574.699219" xlink:href="#f"/>
  <use x="85.414062" y="574.699219" xlink:href="#a"/>
  <use x="89.1875" y="574.699219" xlink:href="#s"/>
  <use x="92.261719" y="574.699219" xlink:href="#d"/>
  <use x="94.785156" y="574.699219" xlink:href="#r"/>
  <use x="97.402344" y="574.699219" xlink:href="#q"/>
  <use x="101.296875" y="574.699219" xlink:href="#p"/>
  <use x="103.992188" y="574.699219" xlink:href="#c"/>
  <use x="105.804688" y="574.699219" xlink:href="#d"/>
  <use x="108.328125" y="574.699219" xlink:href="#o"/>
  <use x="109.585938" y="574.699219" xlink:href="#a"/>
  <use x="112.078125" y="574.699219" xlink:href="#n"/>
  <use x="114.257812" y="574.699219" xlink:href="#b"/>
 </g>
</svg>
