<?xml version="1.0" encoding="UTF-8"?>
<svg width="700pt" height="700pt" version="1.1" viewBox="0 0 700 700" xmlns="http://www.w3.org/2000/svg">
 <g>
  <path d="m280 280c0-38.66 31.34-70 70-70s70 31.34 70 70-31.34 70-70 70-70-31.34-70-70z"/>
  <path d="m246.23 85.363c11.859-23.715 36.098-38.695 62.613-38.695h85.879c28.258 0 53.746 16.992 64.613 43.074l5.2383 12.566c3.6211 8.6953 12.117 14.359 21.535 14.359h27.223c38.664 0 70 31.34 70 70v210c0 38.66-31.336 70-70 70h-326.66c-38.66 0-70-31.34-70-70v-210c0-38.66 31.34-70 70-70h29.492c8.8359 0 16.914-4.9961 20.867-12.898zm103.77 77.969c-64.434 0-116.67 52.234-116.67 116.67s52.234 116.67 116.67 116.67 116.67-52.234 116.67-116.67-52.234-116.67-116.67-116.67z" fill-rule="evenodd"/>
 </g>
</svg>
